<?xml version="1.0" encoding="UTF-8" standalone="no"?>
<svg
   xmlns:dc="http://purl.org/dc/elements/1.1/"
   xmlns:cc="http://creativecommons.org/ns#"
   xmlns:rdf="http://www.w3.org/1999/02/22-rdf-syntax-ns#"
   xmlns:svg="http://www.w3.org/2000/svg"
   xmlns="http://www.w3.org/2000/svg"
   viewBox="0 0 793.70135 1122.52"
   height="1122.52"
   width="793.70135"
   xml:space="preserve"
   id="svg2"
   version="1.1"><metadata
     id="metadata8"><rdf:RDF><cc:Work
         rdf:about=""><dc:format>image/svg+xml</dc:format><dc:type
           rdf:resource="http://purl.org/dc/dcmitype/StillImage" /></cc:Work></rdf:RDF></metadata><defs
     id="defs6"><clipPath
       id="clipPath18"
       clipPathUnits="userSpaceOnUse"><path
         id="path16"
         d="M 0,841.89 H 595.276 V 0 H 0 Z" /></clipPath></defs><g
     transform="matrix(1.3333333,0,0,-1.3333333,0,1122.52)"
     id="g10"><g
       id="g12"><g
         clip-path="url(#clipPath18)"
         id="g14"><g
           transform="translate(56.4199,160.18)"
           id="g20"><path
             id="path22"
             style="fill:#2b2b2a;fill-opacity:1;fill-rule:nonzero;stroke:none"
             d="m 0,0 c 0.186,0.653 0.536,1.05 1.05,1.19 1.54,0.327 2.473,0.491 2.8,0.491 0.093,0 0.14,-0.118 0.14,-0.351 -0.467,-4.994 -0.817,-10.29 -1.05,-15.89 0.513,-0.046 1.33,-0.07 2.45,-0.07 4.013,0 7.63,0.933 10.85,2.8 0.046,-0.047 -0.082,-0.292 -0.385,-0.735 -0.304,-0.444 -0.805,-1.004 -1.505,-1.68 -0.7,-0.677 -1.552,-1.342 -2.555,-1.995 -1.004,-0.654 -2.31,-1.249 -3.92,-1.784 -1.61,-0.538 -3.325,-0.875 -5.145,-1.016 -0.234,-6.486 -0.35,-13.814 -0.35,-21.981 0.933,1.122 2.146,2.101 3.64,2.941 0.606,-0.095 0.91,-0.257 0.91,-0.489 L 6.44,-39.13 c -0.327,-0.374 -0.56,-0.678 -0.7,-0.91 -0.14,-0.234 -0.304,-0.561 -0.49,-0.981 -0.187,-0.419 -0.28,-0.816 -0.28,-1.189 0,-1.447 1.656,-2.17 4.97,-2.17 4.806,0 9.205,0.863 13.195,2.59 3.99,1.727 7.256,4.014 9.8,6.859 2.543,2.847 4.503,6.009 5.88,9.487 1.376,3.474 2.065,7.034 2.065,10.673 0,3.827 -0.98,7.269 -2.94,10.327 C 35.98,-1.39 33.401,1.062 30.205,2.905 27.008,4.748 23.52,6.147 19.74,7.104 15.96,8.062 12.086,8.54 8.12,8.54 1.913,8.54 -3.325,7.431 -7.595,5.215 -11.865,2.998 -14,-0.095 -14,-4.06 c 0,-2.24 1.05,-4.27 3.15,-6.089 2.1,-1.821 5.063,-3.105 8.89,-3.851 0.56,5.692 1.213,10.36 1.96,14 m 47.88,-16.729 c 0,-4.295 -0.805,-8.483 -2.415,-12.566 -1.61,-4.084 -3.897,-7.794 -6.86,-11.13 -2.964,-3.338 -6.802,-6.019 -11.515,-8.051 -4.714,-2.029 -9.894,-3.045 -15.54,-3.045 -4.574,0 -7.747,1.004 -9.52,3.01 -0.28,-0.605 -0.467,-1.095 -0.56,-1.468 0,-0.094 -0.035,-0.42 -0.105,-0.981 -0.07,-0.561 -0.175,-0.945 -0.315,-1.155 -0.14,-0.21 -0.35,-0.316 -0.63,-0.316 -0.98,0 -1.949,0.771 -2.905,2.311 -0.957,1.54 -1.435,2.824 -1.435,3.849 0,7.281 0.49,16.381 1.47,27.301 -5.18,0.42 -9.181,1.773 -12.005,4.06 -2.823,2.286 -4.235,5.016 -4.235,8.19 0,3.92 1.459,7.362 4.375,10.324 2.917,2.963 6.639,5.168 11.165,6.616 4.526,1.446 9.45,2.17 14.77,2.17 3.593,0 7.105,-0.35 10.535,-1.05 3.43,-0.7 6.708,-1.819 9.835,-3.361 3.126,-1.539 5.856,-3.429 8.19,-5.669 2.333,-2.241 4.2,-4.995 5.6,-8.26 1.4,-3.268 2.1,-6.86 2.1,-10.779" /></g><g
           transform="translate(140.2793,165.64)"
           id="g24"><path
             id="path26"
             style="fill:#2b2b2a;fill-opacity:1;fill-rule:nonzero;stroke:none"
             d="M 0,0 C -1.214,0 -2.637,-2.939 -4.27,-8.82 -5.904,-14.7 -7,-20.954 -7.56,-27.58 c 2.473,2.753 4.491,6.721 6.055,11.9 C 0.058,-10.5 0.84,-6.207 0.84,-2.8 0.84,-0.934 0.56,0 0,0 m -19.67,-28.84 c 1.446,-0.887 2.496,-1.424 3.15,-1.61 0.653,-0.187 1.61,-0.28 2.87,-0.28 0.793,0 1.54,0.14 2.24,0.419 0.186,5.788 0.875,11.749 2.065,17.886 1.19,6.136 2.59,11.211 4.2,15.225 1.61,4.012 3.115,6.02 4.515,6.02 1.633,0 2.87,-0.83 3.71,-2.485 0.84,-1.657 1.26,-3.885 1.26,-6.685 0,-4.807 -1.109,-10.069 -3.325,-15.785 -2.217,-5.717 -5.145,-10.302 -8.785,-13.756 -0.047,-0.933 -0.07,-2.309 -0.07,-4.129 0,-10.408 2.31,-15.61 6.93,-15.61 2.006,0 3.593,1.446 4.76,4.34 0.233,0.56 0.42,0.84 0.56,0.84 0.14,0 0.21,-0.164 0.21,-0.489 v -0.211 l 0.42,-0.28 c 0,-1.82 -0.677,-3.804 -2.03,-5.95 -1.354,-2.145 -2.917,-3.22 -4.69,-3.22 -1.727,0 -3.244,0.549 -4.55,1.645 -1.307,1.098 -2.322,2.637 -3.045,4.62 -0.724,1.983 -1.26,4.211 -1.61,6.685 -0.35,2.472 -0.525,5.226 -0.525,8.259 v 0.702 c -1.494,-0.935 -3.057,-1.611 -4.69,-2.032 V -35.7 c 0,-4.2 -0.992,-8.05 -2.975,-11.55 -1.984,-3.5 -4.422,-5.25 -7.315,-5.25 -2.94,0 -5.145,1.145 -6.615,3.43 -1.47,2.286 -2.205,5.179 -2.205,8.679 0,2.894 0.455,5.752 1.365,8.577 0.91,2.822 2.251,5.19 4.025,7.104 1.773,1.913 3.71,2.87 5.81,2.87 1.26,0 2.31,-0.187 3.15,-0.56 0.84,-0.373 1.435,-0.875 1.785,-1.504 0.35,-0.631 0.583,-1.18 0.7,-1.646 0.116,-0.468 0.175,-0.934 0.175,-1.4 v -0.489 c -1.074,0.464 -2.124,0.699 -3.15,0.699 -2.8,0 -5.005,-1.61 -6.615,-4.83 -1.61,-3.22 -2.415,-6.767 -2.415,-10.64 0,-2.38 0.326,-4.353 0.98,-5.915 0.653,-1.564 1.586,-2.346 2.8,-2.346 1.586,0 2.916,1.319 3.99,3.955 1.073,2.637 1.61,5.496 1.61,8.577 0,3.919 -0.864,6.369 -2.59,7.349 1.54,0.793 2.846,1.376 3.92,1.75" /></g><g
           transform="translate(143.8501,124.5502)"
           id="g28"><path
             id="path30"
             style="fill:#2b2b2a;fill-opacity:1;fill-rule:nonzero;stroke:none"
             d="m 0,0 c 0,4.619 1.178,8.96 3.535,13.02 2.356,4.06 5.145,6.089 8.365,6.089 1.446,0 2.636,-0.584 3.57,-1.75 0.933,-1.166 1.493,-2.893 1.68,-5.179 0.093,-0.467 0.14,-0.84 0.14,-1.119 0,-1.122 -0.397,-2.055 -1.19,-2.801 -0.794,-0.747 -1.797,-1.12 -3.01,-1.12 -1.354,0 -2.03,0.303 -2.03,0.91 0,0.139 0.07,0.21 0.21,0.21 0.28,0.046 0.653,0.583 1.12,1.609 0.466,1.027 0.7,1.937 0.7,2.731 0,0.605 -0.164,0.98 -0.49,1.12 C 10.733,13.58 8.96,11.854 7.28,8.54 5.6,5.226 4.76,1.89 4.76,-1.471 c 0,-2.519 0.571,-4.504 1.715,-5.949 1.143,-1.447 2.461,-2.17 3.955,-2.17 1.353,0 2.508,0.606 3.465,1.82 0.956,1.213 1.435,2.916 1.435,5.11 0,1.493 -0.28,3.103 -0.84,4.83 0,0.279 0.28,0.42 0.84,0.42 0.98,0 1.82,-0.643 2.52,-1.925 0.7,-1.284 1.05,-2.789 1.05,-4.515 0,-2.847 -0.782,-5.064 -2.345,-6.65 -1.564,-1.586 -3.489,-2.381 -5.775,-2.381 -2.8,0 -5.297,1.145 -7.49,3.431 C 1.096,-7.164 0,-4.014 0,0" /></g><g
           transform="translate(173.0396,159.1302)"
           id="g32"><path
             id="path34"
             style="fill:#2b2b2a;fill-opacity:1;fill-rule:nonzero;stroke:none"
             d="M 0,0 C 2.053,0 3.08,-1.074 3.08,-3.221 3.08,-4.62 2.625,-5.975 1.715,-7.28 0.805,-8.588 -0.234,-9.24 -1.4,-9.24 c -1.074,0 -1.879,0.338 -2.415,1.015 -0.537,0.676 -0.805,1.528 -0.805,2.555 0,1.4 0.443,2.695 1.33,3.885 C -2.404,-0.596 -1.307,0 0,0 m -6.44,-19.811 c 0.186,0.607 0.466,0.911 0.84,0.911 1.353,0 2.776,0.163 4.27,0.49 0.233,0 0.42,-0.047 0.56,-0.141 0.14,-0.094 0.233,-0.186 0.28,-0.279 v -0.141 c -0.187,-1.026 -0.467,-2.531 -0.84,-4.514 -0.374,-1.984 -0.619,-3.326 -0.735,-4.025 -0.117,-0.701 -0.28,-1.75 -0.49,-3.15 -0.21,-1.401 -0.35,-2.497 -0.42,-3.29 -0.07,-0.794 -0.14,-1.739 -0.21,-2.835 -0.07,-1.098 -0.105,-2.229 -0.105,-3.395 0,-2.147 0.513,-3.22 1.54,-3.22 0.746,0 1.586,0.478 2.52,1.435 0.933,0.955 1.61,1.925 2.03,2.904 0.186,0.281 0.396,0.42 0.63,0.42 0.233,0 0.35,-0.139 0.35,-0.42 V -39.2 c -0.42,-2.054 -1.295,-3.839 -2.625,-5.355 -1.33,-1.516 -2.812,-2.275 -4.445,-2.275 -3.407,0 -5.11,3.662 -5.11,10.99 0,4.945 0.653,10.289 1.96,16.029" /></g><g
           transform="translate(191.3784,139.7396)"
           id="g36"><path
             id="path38"
             style="fill:#2b2b2a;fill-opacity:1;fill-rule:nonzero;stroke:none"
             d="m 0,0 0.28,0.561 c -0.327,0.512 -0.49,0.91 -0.49,1.189 0,0.187 0.07,0.28 0.21,0.28 l 11.831,1.05 2.099,15.191 c -4.247,-0.42 -8.494,-0.63 -12.74,-0.63 -1.587,0 -3.022,0.057 -4.305,0.174 -1.283,0.117 -2.636,0.361 -4.06,0.736 -1.423,0.373 -2.625,0.875 -3.605,1.504 -0.98,0.631 -1.785,1.516 -2.415,2.66 -0.63,1.143 -0.945,2.485 -0.945,4.025 0,0.887 0.327,1.33 0.98,1.33 0.234,0 0.409,-0.199 0.525,-0.594 0.117,-0.398 0.304,-0.875 0.56,-1.435 0.257,-0.561 0.642,-1.005 1.155,-1.33 1.167,-0.748 3.5,-1.121 7,-1.121 4.713,0 14.606,1.33 29.68,3.99 15.073,2.66 25.551,3.99 31.43,3.99 7.701,0 12.435,-1.726 14.211,-5.179 1.119,-0.981 1.68,-1.938 1.68,-2.87 0,-1.308 -1.028,-2.218 -3.081,-2.73 -1.726,-0.42 -3.035,-0.631 -3.919,-0.631 -0.467,0 -1.086,0.198 -1.856,0.596 -0.769,0.395 -1.154,0.734 -1.154,1.015 0,0.28 0.303,0.442 0.91,0.489 0.885,0.14 1.33,0.303 1.33,0.49 0,0.326 -1.426,0.49 -4.271,0.49 -4.479,0 -9.135,-0.244 -13.965,-0.734 -4.83,-0.49 -10.266,-1.18 -16.309,-2.066 -6.045,-0.887 -10.56,-1.494 -13.547,-1.819 L 16.17,3.43 c 8.866,0.933 14.465,1.4 16.799,1.4 1.682,0 3.104,-0.104 4.272,-0.314 1.166,-0.211 2.123,-0.561 2.869,-1.051 0.746,-0.489 1.318,-0.922 1.715,-1.295 0.396,-0.373 0.863,-0.957 1.4,-1.75 0.535,-0.793 0.969,-1.354 1.295,-1.68 0.141,-0.139 0.211,-0.326 0.211,-0.56 0,-0.42 -0.258,-0.629 -0.772,-0.629 -7.138,-0.188 -16.613,-0.864 -28.419,-2.03 -0.934,-11.714 -1.399,-18.597 -1.399,-20.65 0,-1.027 0.127,-1.82 0.385,-2.381 0.256,-0.56 0.547,-0.898 0.875,-1.014 0.326,-0.117 0.617,-0.246 0.875,-0.386 0.256,-0.14 0.385,-0.35 0.385,-0.629 0,-1.354 -0.235,-2.776 -0.702,-4.271 -0.466,-1.493 -1.212,-2.24 -2.24,-2.24 -1.398,0 -2.554,0.946 -3.464,2.835 -0.91,1.891 -1.365,3.653 -1.365,5.285 0,3.173 0.653,10.85 1.96,23.031 -3.5,-0.328 -5.6,-0.491 -6.3,-0.491 -0.747,0 -1.424,0.14 -2.03,0.42 -0.56,0.281 -1.179,0.875 -1.855,1.785 -0.677,0.911 -1.015,1.691 -1.015,2.345 0,0.326 0.116,0.606 0.35,0.84" /></g><g
           transform="translate(240.0996,115.7298)"
           id="g40"><path
             id="path42"
             style="fill:#2b2b2a;fill-opacity:1;fill-rule:nonzero;stroke:none"
             d="M 0,0 C 1.072,0 2.075,0.514 3.01,1.54 3.942,2.566 4.7,3.791 5.284,5.215 5.867,6.639 6.393,8.33 6.859,10.29 7.325,12.25 7.676,13.918 7.909,15.295 8.143,16.671 8.33,18.061 8.47,19.46 7.303,20.953 6.183,21.7 5.109,21.7 3.149,21.7 1.458,19.729 0.034,15.785 -1.39,11.842 -2.101,8.213 -2.101,4.9 -2.101,1.633 -1.4,0 0,0 m 29.26,9.311 c 0.326,0.746 0.897,2.099 1.715,4.059 0.816,1.96 1.515,3.593 2.099,4.9 0.583,1.306 1.342,2.742 2.276,4.305 0.932,1.564 1.866,2.788 2.799,3.675 0.234,0.141 0.42,0.21 0.561,0.21 0.699,0 1.586,-0.536 2.66,-1.61 C 41.79,24.43 42,24.126 42,23.939 42,23.846 41.952,23.753 41.859,23.66 40.785,22.446 39.888,20.16 39.165,16.801 38.44,13.439 38.08,9.986 38.08,6.439 c 0,-3.265 0.35,-5.96 1.05,-8.084 0.7,-2.123 1.772,-3.185 3.22,-3.185 1.166,0 2.543,0.769 4.129,2.31 0.093,0.047 0.187,0.071 0.281,0.071 0.139,0 0.21,-0.071 0.21,-0.211 0,-1.773 -0.608,-3.151 -1.821,-4.13 -1.213,-0.98 -2.707,-1.47 -4.479,-1.47 -1.4,0 -2.59,0.467 -3.57,1.401 -0.98,0.933 -1.704,2.205 -2.17,3.814 -0.467,1.609 -0.805,3.231 -1.015,4.865 -0.21,1.633 -0.315,3.407 -0.315,5.321 0,2.985 0.163,5.412 0.49,7.279 -0.981,-1.074 -1.879,-2.672 -2.695,-4.795 -0.818,-2.124 -1.611,-4.654 -2.38,-7.595 -0.77,-2.94 -1.273,-4.76 -1.505,-5.46 0,-0.466 -0.351,-0.7 -1.05,-0.7 -0.374,0 -0.782,0.095 -1.226,0.28 -0.443,0.188 -0.688,0.374 -0.734,0.56 -0.095,0.234 -0.34,0.397 -0.735,0.49 -0.398,0.095 -0.595,0.28 -0.595,0.56 0,0.28 0.022,0.49 0.069,0.631 0.094,0.42 0.373,3.662 0.841,9.729 0,0.046 0.058,0.84 0.175,2.38 0.115,1.54 0.232,3.23 0.349,5.075 0.117,1.843 0.175,3.208 0.175,4.095 0,0.746 -0.047,1.12 -0.139,1.12 -0.42,0 -0.922,-1.26 -1.505,-3.78 C 22.551,14.49 21.956,11.713 21.35,8.68 20.742,5.646 19.798,2.87 18.515,0.35 17.23,-2.17 15.772,-3.43 14.14,-3.43 c -1.494,0 -2.8,0.712 -3.92,2.135 C 9.1,0.128 8.376,2.311 8.05,5.25 7.069,2.637 5.937,0.536 4.654,-1.05 3.37,-2.636 2.075,-3.43 0.77,-3.43 c -2.288,0 -4.014,1.05 -5.18,3.151 -1.167,2.099 -1.75,4.759 -1.75,7.979 0,4.713 1.05,9.135 3.149,13.265 2.101,4.131 4.713,6.195 7.841,6.195 3.452,0 5.46,-1.867 6.02,-5.599 2.005,-0.561 3.009,-1.145 3.009,-1.75 0,-0.42 -0.164,-2.276 -0.489,-5.566 -0.327,-3.29 -0.49,-5.891 -0.49,-7.806 0,-4.246 0.746,-6.369 2.24,-6.369 1.165,0 2.25,1.272 3.255,3.815 1.003,2.543 1.796,5.366 2.38,8.47 0.583,3.103 1.201,6.032 1.854,8.786 0.654,2.752 1.237,4.269 1.75,4.548 1.12,0.702 2.216,1.051 3.29,1.051 0.981,0 1.494,-0.42 1.54,-1.26 0.093,-1.541 0.141,-4.177 0.141,-7.91 0,-4.295 -0.024,-7.047 -0.07,-8.259" /></g><g
           transform="translate(288.749,161.6498)"
           id="g44"><path
             id="path46"
             style="fill:#2b2b2a;fill-opacity:1;fill-rule:nonzero;stroke:none"
             d="M 0,0 C 0.279,0.28 0.536,0.42 0.77,0.42 0.91,0.42 1.003,0.396 1.05,0.35 1.423,0.07 2.041,-0.175 2.904,-0.385 3.768,-0.595 4.479,-0.816 5.04,-1.05 5.6,-1.283 5.88,-1.634 5.88,-2.1 c 0,-0.14 -0.654,-3.314 -1.96,-9.519 1.306,0.139 2.718,0.338 4.234,0.594 1.517,0.255 2.731,0.455 3.641,0.595 0.91,0.141 1.527,0.21 1.854,0.21 1.354,0 2.031,-0.186 2.031,-0.559 0,-0.188 -0.164,-0.351 -0.491,-0.491 -0.327,-0.14 -0.513,-0.257 -0.559,-0.349 L 14,-12.949 c -2.8,-1.308 -6.487,-2.545 -11.061,-3.711 -1.914,-9.567 -2.87,-17.547 -2.87,-23.94 0,-6.067 0.887,-10.5 2.66,-13.3 -0.046,-0.653 -0.374,-0.98 -0.979,-0.98 -3.78,1.82 -5.67,8.213 -5.67,19.181 0,5.412 0.396,11.362 1.19,17.849 -1.26,-0.234 -2.754,-0.349 -4.48,-0.349 -3.546,0 -5.32,2.075 -5.32,6.229 0,1.12 0.21,1.681 0.63,1.681 0.139,0 0.28,-0.095 0.42,-0.281 2.194,-0.934 5.133,-1.4 8.82,-1.4 h 0.7 C -1.681,-9.917 -1.027,-5.927 0,0" /></g><g
           transform="translate(299.459,115.7298)"
           id="g48"><path
             id="path50"
             style="fill:#2b2b2a;fill-opacity:1;fill-rule:nonzero;stroke:none"
             d="M 0,0 C 1.072,0 2.075,0.514 3.01,1.54 3.942,2.566 4.7,3.791 5.284,5.215 5.867,6.639 6.393,8.33 6.859,10.29 7.325,12.25 7.676,13.918 7.909,15.295 8.143,16.671 8.33,18.061 8.47,19.46 7.303,20.953 6.183,21.7 5.109,21.7 3.149,21.7 1.458,19.729 0.034,15.785 -1.39,11.842 -2.101,8.213 -2.101,4.9 -2.101,1.633 -1.4,0 0,0 m 4.83,27.16 c 3.452,0 5.46,-1.867 6.02,-5.599 2.005,-0.561 3.009,-1.145 3.009,-1.75 0,-0.42 -0.164,-2.276 -0.489,-5.566 -0.327,-3.29 -0.49,-5.891 -0.49,-7.806 0,-3.966 0.49,-5.949 1.47,-5.949 1.352,0 3.29,3.196 5.809,9.59 1.307,3.173 2.381,6.475 3.221,9.905 0.84,3.43 1.352,6.101 1.54,8.015 0.046,0.7 0.605,1.354 1.68,1.96 1.073,0.606 1.935,0.91 2.589,0.91 0.373,0 0.561,-0.117 0.561,-0.35 l -0.07,-0.28 c -0.047,-0.187 -0.094,-0.455 -0.14,-0.804 -0.048,-0.351 -0.117,-0.749 -0.21,-1.191 -0.095,-0.444 -0.176,-0.957 -0.245,-1.54 -0.07,-0.584 -0.129,-1.202 -0.176,-1.855 -0.047,-0.654 -0.094,-1.354 -0.139,-2.1 -0.047,-0.747 -0.071,-1.494 -0.071,-2.24 0,-1.634 0.724,-5.145 2.171,-10.535 1.445,-5.39 2.17,-9.065 2.17,-11.025 0,-2.006 -0.619,-3.616 -1.855,-4.83 -1.238,-1.213 -2.65,-1.819 -4.236,-1.819 -1.353,0 -2.509,0.478 -3.465,1.434 -0.957,0.957 -1.434,2.322 -1.434,4.095 0,0.608 0.081,1.225 0.245,1.856 0.163,0.628 0.338,1.119 0.524,1.469 0.187,0.351 0.327,0.525 0.42,0.525 0.046,0 0.071,-0.07 0.071,-0.209 0,-2.987 0.77,-4.481 2.31,-4.481 1.912,0 2.869,1.494 2.869,4.481 0,2.192 -0.549,5.389 -1.644,9.59 -1.097,4.199 -1.646,6.416 -1.646,6.649 C 24.966,17.29 24.697,16.648 24.395,15.785 24.091,14.921 23.706,13.813 23.239,12.46 22.772,11.105 22.353,9.963 21.979,9.03 20.766,5.903 19.19,3.115 17.255,0.665 15.317,-1.785 13.556,-3.01 11.97,-3.01 9.683,-3.01 8.353,-0.326 7.979,5.04 5.739,-0.607 3.336,-3.43 0.77,-3.43 c -2.288,0 -4.014,1.05 -5.18,3.151 -1.167,2.099 -1.75,4.759 -1.75,7.979 0,4.713 1.05,9.135 3.149,13.265 2.101,4.131 4.713,6.195 7.841,6.195" /></g><g
           transform="translate(337.5381,139.3197)"
           id="g52"><path
             id="path54"
             style="fill:#2b2b2a;fill-opacity:1;fill-rule:nonzero;stroke:none"
             d="M 0,0 C 0.186,0.606 0.466,0.91 0.84,0.91 2.193,0.91 3.616,1.073 5.11,1.4 5.343,1.4 5.53,1.354 5.67,1.26 5.81,1.166 5.903,1.073 5.95,0.98 V 0.84 C 5.763,-0.187 5.483,-1.691 5.11,-3.675 4.736,-5.658 4.491,-7 4.375,-7.699 4.258,-8.4 4.095,-9.449 3.885,-10.85 c -0.21,-1.4 -0.35,-2.497 -0.42,-3.29 -0.07,-0.794 -0.14,-1.739 -0.21,-2.835 -0.07,-1.097 -0.105,-2.228 -0.105,-3.394 0,-2.148 0.513,-3.221 1.54,-3.221 0.746,0 1.586,0.479 2.52,1.436 0.933,0.955 1.61,1.925 2.03,2.904 0.186,0.28 0.396,0.42 0.63,0.42 0.233,0 0.35,-0.14 0.35,-0.42 v -0.14 C 9.8,-21.443 8.925,-23.229 7.595,-24.744 6.265,-26.261 4.783,-27.02 3.15,-27.02 c -3.407,0 -5.11,3.663 -5.11,10.991 0,4.945 0.653,10.289 1.96,16.029" /></g><g
           transform="translate(359.5869,137.43)"
           id="g56"><path
             id="path58"
             style="fill:#2b2b2a;fill-opacity:1;fill-rule:nonzero;stroke:none"
             d="m 0,0 c 0,1.26 -0.444,1.89 -1.33,1.89 -1.447,0 -2.73,-1.401 -3.85,-4.2 -1.12,-2.8 -1.75,-5.857 -1.89,-9.169 2.146,1.585 3.861,3.509 5.145,5.774 C -0.642,-3.442 0,-1.54 0,0 m 0,-22.47 c 3.64,0 7.711,1.89 12.215,5.67 4.503,3.779 7.875,8.213 10.115,13.3 0.186,0.187 0.373,0.28 0.56,0.28 0.233,0 0.35,-0.234 0.35,-0.7 0,-0.095 -0.047,-0.468 -0.14,-1.12 0,-0.234 0.093,-0.479 0.28,-0.734 0.186,-0.258 0.28,-0.502 0.28,-0.737 V -6.58 c 0,-6.347 -1.914,-11.235 -5.74,-14.665 -3.827,-3.43 -8.354,-5.145 -13.58,-5.145 -4.574,0 -8.494,1.307 -11.76,3.92 -3.267,2.614 -4.9,6.16 -4.9,10.64 0,4.526 1.061,8.621 3.185,12.285 C -7.012,4.118 -4.34,5.95 -1.12,5.95 0.42,5.95 1.621,5.437 2.485,4.41 3.348,3.383 3.78,2.053 3.78,0.42 c 0,-2.38 -0.922,-4.912 -2.765,-7.595 -1.844,-2.683 -4.539,-5.006 -8.085,-6.965 0.42,-5.554 2.776,-8.33 7.07,-8.33" /></g><g
           transform="translate(100.9127,191.0387)"
           id="g60"><path
             id="path62"
             style="fill:#2b2b2a;fill-opacity:1;fill-rule:nonzero;stroke:none"
             d="M 0,0 C 48.5,42.453 122.322,51.681 179.321,21.842 197.988,12.336 214.595,-0.878 228.04,-16.632 213.726,-1.656 196.566,10.429 177.818,18.682 122.278,43.908 52.894,32.21 9.38,-10.393 9.38,-10.393 0,0 0,0" /></g><g
           transform="translate(348.0115,172.4196)"
           id="g64"><path
             id="path66"
             style="fill:#2b2b2a;fill-opacity:1;fill-rule:evenodd;stroke:none"
             d="m 0,0 -1.089,0.23 c 0.714,4.896 -0.462,16.271 -1.009,21.094 -0.358,3.16 -0.892,6.494 -1.926,9.27 -1.49,3.999 -3.162,4.145 -4.779,7.143 0.645,0.793 2.147,1.561 3.163,1.832 C -2.204,36.408 -1.439,27.168 -1.077,21.39 -0.62,14.09 0.013,7.493 0,0 Z" /></g><g
           transform="translate(347.3665,172.7384)"
           id="g68"><path
             id="path70"
             style="fill:#2b2b2a;fill-opacity:1;fill-rule:evenodd;stroke:none"
             d="M 0,0 C 3.096,0.259 5.535,1.81 9.459,-0.256 18.391,-4.959 12.334,-25.541 -2.096,-24.633 -24.494,-21.769 -17.369,13.264 0,0 Z" /></g><g
           transform="translate(341.7414,208.8586)"
           id="g72"><path
             id="path74"
             style="fill:#2b2b2a;fill-opacity:1;fill-rule:evenodd;stroke:none"
             d="M 0,0 C 8.103,6.019 19.084,3.136 23.774,-5.605 10.64,-10.57 9.11,-9.312 0,0 Z" /></g></g></g></g></svg>